<?xml version="1.0" encoding="utf-8"?>
<!-- Generator: Adobe Illustrator 23.0.3, SVG Export Plug-In . SVG Version: 6.00 Build 0)  -->
<svg version="1.1" id="logosvg.com" xmlns="http://www.w3.org/2000/svg" xmlns:xlink="http://www.w3.org/1999/xlink" x="0px"
	 y="0px" viewBox="0 0 400 300" style="enable-background:new 0 0 400 300;" xml:space="preserve">
<style type="text/css">
	.st0{fill:#0094A1;}
</style>
<path id="logo" class="st0" d="M365.1,93.6c2,0,3.8-0.8,5.1-2.2c1.4-1.4,2.2-3.2,2.2-5.1c0-2-0.6-3.8-2.2-5.1
	c-1.4-1.4-3.2-2.2-5.1-2.2c-2,0-3.8,0.8-5.1,2.2c-1.4,1.4-2.2,3.2-2.2,5.1c0,2,0.8,3.8,2.2,5.1C361.3,92.8,363.1,93.6,365.1,93.6z
	 M361.3,82.3c1-1.2,2.4-1.8,4-1.8c1.6,0,2.8,0.6,4,1.8c1,1,1.6,2.4,1.6,4c0,1.6-0.6,2.8-1.6,4c-1,1.2-2.4,1.8-4,1.8
	c-1.6,0-2.8-0.6-4-1.8c-1-1-1.6-2.4-1.6-4C359.7,84.7,360.1,83.5,361.3,82.3z M364.1,87h0.6l2.2,2.6h2.4l-2.6-3
	c0.6-0.2,1-0.4,1.2-0.8c0.2-0.4,0.4-0.8,0.4-1.4c0-0.4,0-0.8-0.2-1c-0.2-0.2-0.4-0.4-0.8-0.6c-0.4-0.2-0.6-0.4-1-0.4
	c-0.2,0-0.6,0-1.2,0h-2.8v7.1h1.8V87z M364.1,83.5h0.6c0.2,0,0.4,0,0.6,0c0,0,0.2,0.2,0.4,0.2c0.2,0.2,0.4,0.2,0.4,0.4
	c0,0.2,0,0.2,0,0.4c0,0.2,0,0.4,0,0.4c0,0.2,0,0.4-0.2,0.4c-0.2,0-0.4,0.2-0.6,0.2c-0.2,0-0.4,0-0.8,0h-0.4V83.5z M371.4,108.6
	c-7.9-13-23.1-22.3-41.1-22.3H69.7c-17.8,0-33,9.3-41.1,22.3c-6.9,12.3-8.5,32-8.5,45.1c0,13,1.6,33,8.5,45.1
	c7.9,13,23.1,22.3,41.1,22.3h260.6c17.8,0,33-9.3,41.1-22.3c6.9-12.1,8.5-32,8.5-45.1C379.9,140.6,378.3,120.6,371.4,108.6z
	 M207.3,209.2H73.1c-10.5,0-22.5-5.1-28.9-11.9c-10.1-10.9-12.3-27.7-12.3-43.7c0-16,2.2-32.8,12.3-43.7
	c6.3-6.7,18.6-11.9,28.9-11.9h134.2V209.2z M284.6,156.4h-41.5v0.6c0,11.3,1.8,15.2,11.1,15.2c6.1,0,10.9-0.6,11.3-7.5h19.2
	c-0.2,8.9-3.2,14-8.3,17c-5.3,3-12.9,3.8-22.1,3.8c-24.7,0-30.6-8.3-30.6-31.8c0-24.3,5.3-32,30.6-32c23.5,0,30.4,6.3,30.4,32V156.4
	z M346.1,136.3h-14.6v49.2h-20v-49.2h-14.6v-14.4h0.2h49V136.3z M175.5,167.5c0-3.2-1-4.9-3-5.9c-2.2-1-5.9-0.8-8.3-0.8
	c-26.5,0-30.8-5.7-30.8-18.4c0-20.2,12.9-20.6,30.8-20.6c11.9,0,27.7,0.2,27.7,15.2v2.6h-18.8c-0.8-4.9-4.9-5.3-8.9-5.3
	c-11.1,0-11.5,1.4-11.5,5.5c0,3.6,0.6,5.9,11.5,6.1c21.7,0.6,30.8,1.8,30.8,19.2c0,18.2-14,21-30.8,21c-4.2,0-8.1,0-11.9-0.2
	c-12.3-1-18.8-5.5-19-19.4h19.8c0.4,6.9,5.7,7.1,10.9,7.1C173.5,173.6,175.5,173,175.5,167.5z M265,145.7v0.6h-21.9
	c0.2-8.7,1.8-11.5,10.7-11.3C261.1,135.1,265,135.7,265,145.7z M58.6,154.1c0,23.5,5.9,32,30.8,32c9.3,0,16.8-0.8,22.3-3.8
	c5.1-3,8.3-8.1,8.3-17.4h-19.6c-0.2,6.7-4.7,7.5-11.1,7.5c-9.1,0-10.9-3.8-10.9-15V157h41.5v-3c0-25.7-6.9-32.2-30.6-32.2
	C64.2,121.8,58.6,129.7,58.6,154.1z M89.1,135.5c7.1,0,11.1,0.8,11.1,10.5v0.4H78.6C78.8,138,80.6,135.5,89.1,135.5z"/>
</svg>
