<?xml version="1.0" encoding="utf-8"?>
<!-- Generator: Adobe Illustrator 14.0.0, SVG Export Plug-In . SVG Version: 6.00 Build 43363)  -->
<!DOCTYPE svg PUBLIC "-//W3C//DTD SVG 1.1//EN" "http://www.w3.org/Graphics/SVG/1.1/DTD/svg11.dtd">
<svg version="1.1" id="Harley" xmlns="http://www.w3.org/2000/svg" xmlns:xlink="http://www.w3.org/1999/xlink" x="0px" y="0px"
	 width="400px" height="300px" viewBox="-50 -32.753 400 300" enable-background="new -50 -32.753 400 300" xml:space="preserve">
<path fill="#FFFFFF" d="M154.713,1.416c12.354,9.584,27.658,17.224,45.477,22.715c15.488,4.768,32.89,7.929,51.744,9.395
	l3.203,0.253V74.35h49.142v88.152h-30.202l-2.969,3.02l-7.395,6.561c-33.196,29.473-79.368,64.885-110.801,66.235h-0.125h-0.137
	c-24.111-0.804-64.783-24.78-111.579-65.794l-7.09-6.211l-3.632-3.788H-0.838V74.348H49.35V33.719l3.256-0.156
	c39.745-1.859,69.95-11.792,97.946-32.208l2.098-1.532L154.713,1.416L154.713,1.416z"/>
<path d="M152.589,4.153c27.149,21.049,64.043,30.103,99.076,32.824v28.716c-7.426-0.385-13.444,7.396-13.461,12.12l62.613-0.007
	v81.234h-58.052c1.377,7.522,11.421,10.842,18.646,10.453c-38.593,34.259-81.137,64.182-108.652,65.363
	c-25.07-0.83-67.448-28.163-109.414-64.939c17.401,0.283,18.941-10.887,18.941-10.887l-59.665,0.046V77.805h62.419
	c-0.313-5.942-5.767-11.479-12.269-12.111v-28.67C89.977,35.284,122.13,26.362,152.589,4.153L152.589,4.153z"/>
<path fill="#FF6600" d="M244.433,43.22c-0.011,5.118-0.011,12.149,0,17.966c-6.851,1.42-13.77,10.727-13.756,16.627
	c-3.965-0.008-5.639,0-5.639,0c0.55-11.224,6.775-16.678,13.786-20.399c0-3.541,0-5.468,0.036-8.944
	c-29.878-0.736-64.436-13.569-86.054-28.174c-19.671,13.25-56.683,27.417-86.857,28.174c-0.009,1.965-0.009,5.878,0,8.95
	c7.885,4.018,12.512,11.875,12.996,20.384c-3.066,0-4.271,0-5.936,0c-1.28-8.881-6.364-13.643-12.605-17.133
	c0-5.676,0-11.212-0.037-17.104c34.118-1.928,72.382-15.125,92.061-30.369C171.279,28.706,210.909,40.66,244.433,43.22
	L244.433,43.22z"/>
<g>
	<path fill="#FF6600" d="M138.565,46.487c-0.326-8.005-2.142-9.911-13.852-4.217c-7.493,3.735-9.217,3.394-9.359,10v17.43
		c0.095,8.303,2.797,8.175,11.069,8.115c10.067-0.067,12.077,0.084,12.142-5.833C138.55,67.778,138.588,57.421,138.565,46.487z
		 M132.021,69.692c-0.009,1.172-0.573,1.501-1.391,1.53c-1.788,0.082-4.97,0.014-7.135,0.022c-1.337,0.009-1.884-1.234-1.898-2.313
		c-0.05-4.792-0.474-16.189,1.259-17.945c0.566-0.579,9.155-5.527,9.165-1.46C132.021,49.528,132.027,68.418,132.021,69.692z"/>
	<path fill="#FF6600" d="M98.059,63.13l-5.38-11.627c-1.934,0.349-3.043,0.639-6.764,1.301v25.002l6.852,0.008l0.208-9.944
		c2.024,2.612,3.661,6.333,5.253,9.515c1.562-3.147,3.17-7.335,5.036-10.729c0.899,1.057,0.73,7.374,0.73,11.149v0.001h6.761V47.687
		c-5.296,1.086-5.207,1.086-7.044,1.607L98.059,63.13z"/>
	<path fill="#FF6600" d="M139.296,35.728l-0.054,7.471l9.389-4.651c0,0-0.016,26.398,0,39.266h7.535V38.548l9.643,4.742l0.052-7.611
		c0,0-11.105-5.329-13.613-7.158C149.911,30.26,139.296,35.728,139.296,35.728z"/>
	<path fill="#FF6600" d="M217.122,67.697c2.847-0.98,3.624-10.408,0.327-14.031c-1.779-1.957-12.438-3.638-21.465-5.603v29.751
		h6.542v-7.967c3.259-0.013,2.437-0.06,5.182-0.008c3.785-0.005,5.3,0.121,5.313,7.975h6.469
		C219.489,77.814,220.142,69.958,217.122,67.697z M210.926,63.648c-2.978-0.179-4.062-0.215-8.312-0.43l-0.042-6.891
		c3.563,0.403,8.962,1.096,9.507,1.788C212.749,58.969,213.313,63.686,210.926,63.648z"/>
	<path fill="#FF6600" d="M180.072,42.044c-5.831-2.313-13.511-6.375-13.511,3.112c-0.007,7.066,0,26.081,0,26.081
		c0,6.568,3.81,6.568,12.446,6.577c9.135-0.008,11.473-0.008,11.473-6.577c0,0,0-17.191,0-21
		C190.48,45.138,185.594,44.233,180.072,42.044z M183.845,68.628c0.015,3.067-2.881,2.604-4.866,2.604
		c-2.856,0.006-5.498,0.507-5.488-4.583c0,0-0.025-9.837-0.016-15.772c0.006-3.491,2.127-2.924,5.311-1.996
		c2.034,0.597,5.074,0.627,5.068,4.28C183.859,59.928,183.859,62.303,183.845,68.628z"/>
</g>
<polygon fill="#FF6600" points="10.218,85.426 293.55,85.426 293.55,151.143 10.218,151.143 "/>
<polygon points="16.444,90.976 288.022,90.976 288.022,145.969 16.444,145.969 "/>
<g>
	<path fill="#FFFFFF" d="M35.466,113.704H30.95V97.829h-6.203v41.535h6.248l-0.005-17.309c1.866,0.008,2.73,0.008,4.433,0v17.35
		h6.25V97.872h-6.207V113.704z"/>
	<path fill="#FFFFFF" d="M89.792,132.426L89.792,132.426l-0.001-34.554h-6.637v41.492h12.835v-6.938
		C93.742,132.443,92.056,132.443,89.792,132.426z"/>
	<path fill="#FFFFFF" d="M97.363,139.364h12.782v-6.979c-2.351,0.023-3.86,0.023-6.188,0v-11.02h6.234V114.1
		c-2.18,0.013-3.736,0.013-6.234,0v-9.688h6.279v-6.539H97.363V139.364z"/>
	<rect x="128.531" y="116.203" fill="#FFFFFF" width="11.42" height="5.163"/>
	<path fill="#FFFFFF" d="M159.005,104.992c-0.007-4.851-2.255-7.144-5.484-7.144c-4.213,0-6.027,0-10.825,0.023v41.492
		c3.606,0,6.66,0,8.912-0.019c5.099,0.019,7.41-3.963,7.447-7.357C159.043,124.491,158.998,113.807,159.005,104.992z
		 M151.215,132.394c-1.385,0.015-1.302,0.015-2.233-0.01l-0.006-28.233c0,0,3.706-0.85,3.706,1.986
		c0,1.615,0.045,19.218,0.065,24.314C152.725,131.582,152.076,132.365,151.215,132.394z"/>
	<path fill="#FFFFFF" d="M129.564,97.872h-6.114c-1.384,4.604-1.727,8.673-3.141,13.547c-1.315-4.836-2.046-9.159-2.862-13.57
		c-1.998,0-3.425,0-6.473,0.023c1.68,8.175,4.047,16.15,6.129,24.327c-0.009,5.185,0.035,9.981,0.015,16.819h6.249
		c0-6.443,0-10.037-0.022-16.694C125.567,114.194,127.858,106.627,129.564,97.872z"/>
	<path fill="#FFFFFF" d="M77.613,118.27c3.245-3.252,3.103-6.969,3.103-8.957c0.009-4.367-0.684-11.465-6.73-11.465
		c-6.92,0-7.793,0-10.493,0.021l-0.091,41.534h6.719V123.44h1.109c1.451,0.007,2.968,0.266,2.977,2.835
		c-0.008,3.103-0.018,8.697,0.007,11.316c-0.015,1.213,1.757,1.772,2.499,1.814h4.042c0.015-5.321,0.015-8.995,0.015-13.315
		C80.725,121.552,79.653,120.101,77.613,118.27z M73.878,113.331c0.016,1.643-0.722,2.12-1.354,2.134h-2.446v-11.019
		c2.431,0.023,3.814,0.023,3.831,2.331C73.902,108.555,73.939,111.427,73.878,113.331z"/>
	<path fill="#FFFFFF" d="M57.214,97.874h-9.565c-1.341,14.208-2.811,27.869-4.257,41.534h5.901l1.16-9.991h4.27
		c0.32,2.381,0.797,6.273,1.28,9.947h5.766c-1.497-14.569-2.924-28.064-4.555-41.492L57.214,97.874L57.214,97.874z M51.432,121.283
		l0.738-14.981c0.877,5.348,1.228,9.717,1.673,14.981H51.432z"/>
	<path fill="#FFFFFF" d="M235.851,116.593c-2.845-2.122-5.634-3.125-5.644-8.551c0.01-1.845-0.33-4.262,1.758-4.275
		c2.449-0.166,2.449,3.168,2.455,8.264l6.205,0.04v-8.121c0.008-3.987-2.359-7.119-7.99-7.161c-9.51-0.105-8.602,8.717-8.594,14.551
		c-0.008,6.452,5.269,8.528,8.041,10.625c1.406,1.063,2.635,2.358,2.635,6.547c0,3.675-0.593,4.971-2.149,4.962
		c-2.564-0.016-2.351-2.491-2.358-3.712c0.01-1.115,0.01-4.187,0.02-6.303c-1.306-0.008-5.282-0.008-6.266-0.023
		c-0.015,12.902,1.027,16.323,8.592,16.323c6.446,0,8.437-4.581,8.437-10.464C240.943,121.249,239.642,119.432,235.851,116.593z"/>
	<path fill="#FFFFFF" d="M215.174,97.52c-3.55,0.012-7.225,0.012-9.855,0v41.545c2.229,0,5.614,0,8.599-0.007
		c5.296,0.007,7.999-2.299,7.981-6.771V104.85C221.916,99.366,218.327,97.53,215.174,97.52z M216.046,130.36
		c-0.011,1.864-0.443,2.045-4.117,2.023v-28.277c0,0,0.923,0.023,2.038,0c0.942,0.016,2.068,1.012,2.085,2.232
		C216.082,113.465,216.046,130.36,216.046,130.36z"/>
	<path fill="#FFFFFF" d="M251.673,96.49c-3.549,0.021-8.653,0.759-8.644,8.755c-0.01,11.159,0.003,20.804,0,26.701
		c-0.01,6.122,4.481,8.072,8.085,8.134c4.314,0.081,8.534-3.696,8.534-8.043c0,0,0.005-22.686,0-26.636
		C259.648,97.722,254.907,96.46,251.673,96.49z M253.317,130.784c-0.011,3.951-4.379,2.962-4.37-0.603
		c-0.009-9.456-0.06-19.372-0.023-24.685c0.018-2.842,4.407-2.768,4.394,0.002C253.308,107.885,253.308,121.247,253.317,130.784z"/>
	<path fill="#FFFFFF" d="M273.805,97.52l0.261,19.033c-1.384-6.206-2.657-12.692-4.024-19.033h-7.969v41.172h6.568l-0.192-22.795
		c1.534,7.788,2.872,15.057,4.278,22.795h7.33V97.52H273.805z"/>
	<path fill="#FFFFFF" d="M185.994,122.104c-0.876-8.036-1.703-16.512-2.454-24.584h-6.287l5.515,41.501h6.626l5.774-41.501h-6.16
		C188.011,104.77,185.994,122.104,185.994,122.104z"/>
	<path fill="#FFFFFF" d="M164.945,97.52c-1.381,13.669-3.748,27.769-4.953,41.501h5.931l1.221-10.037c1.322,0,2.749,0,4.432,0
		c0.566,3.422,0.902,6.681,1.593,10.037h5.853l-5.163-41.501H164.945z M167.873,121.283l1.382-14.854
		c0.811,4.136,1.198,10.795,1.415,14.854H167.873z"/>
	<polygon fill="#FFFFFF" points="196.32,97.52 196.32,139.065 202.594,139.065 202.572,97.52 	"/>
</g>
<path fill="#FF6600" d="M76.92,159.033c-0.088,6.836-3.028,11.68-7.319,15.283c27.646,24.766,65.007,45.87,83.376,47.093
	c18.642-1.223,54.972-23.712,82.729-47.267c-5.573-4.896-7.173-9.137-7.189-15.109c2.648,0.007,3.773,0.007,5.507,0.013
	c0.476,7.177,8.087,12.97,11.249,14.324c-40.786,33.672-66.556,50.106-92.687,53.551c-27.146-3.795-53.438-20.052-92.927-53.247
	c5.498-2.439,11.031-8.144,11.017-14.641H76.92L76.92,159.033z"/>
<g>
	<path fill="#FF6600" d="M108.706,159.033c-3.327,0.007-8.542-0.104-8.536,3.727c-0.007,6.555-0.007,20.589-0.007,23.816
		c0,4.617,2.619,5.481,7.001,8.481c4.388,3.004,5.684,3.926,7.521,4.174c1.221,0.156,3.133-1.036,3.133-4.561
		c0.013-9.792,0.013-30.547,0.013-30.54C117.832,158.823,114.589,159.04,108.706,159.033z M111.923,187.523
		c0,3.67-2.454,1.97-3.293,1.386c-0.686-0.459-2.93-1.148-2.93-3.77c-0.016-5.021,0-13.839,0.005-18.162
		c0-1.732,1.919-1.953,2.664-1.963c2.195-0.007,3.555-0.328,3.564,2.266C111.923,174.831,111.923,180.534,111.923,187.523z"/>
	<path fill="#FF6600" d="M132.839,181.286c-1.474-5.29-5.617-19.982-5.617-19.982s-0.358-2.264-1.95-2.264
		c-1.213,0-3.088-0.021-4.768-0.007v43.865c2.172,1.505,3.205,2.111,5.58,2.932c0.006-9.427,0.006-18.374,0-26.65h0.551
		c1.903,6.438,4.775,15.291,6.501,20.201c1.761-5.433,3.415-11.495,5.118-17.059l0.634,0.043l0.009,29.31l5.868,2.24v-54.882h-5.991
		C136.858,166.526,135.257,172.927,132.839,181.286z"/>
	<path fill="#FF6600" d="M96.37,159.033h-7.856c-1.779,0.007-3.936,1.779-3.942,3.802c0.007,4.42,0.007,10.584,0.013,14.812
		c-0.006,2.364,8.512,8.092,12.804,10.55c0.007-2.458-0.038-3.648-0.03-6.866c-2.902-2.055-6.858-3.655-6.843-5.477
		c0.006-5.052-0.03-8.348-0.03-10.497c0.901,0,6.04,0,6.442,0c0,0,0.797,0.006,0.797-1.034c0.007-0.856-0.008-3.892-0.008-3.892
		C97.724,159.47,97.389,159.04,96.37,159.033z"/>
	<path fill="#FF6600" d="M222.24,159.033c-1.666,0.007-3.652,0.007-5.416,0l-3.325,12.185c-1.099-3.443-1.702-8.762-2.647-12.185
		c-1.69,0.007-4.84,0-6.174,0c1.843,5.415,3.918,11.204,5.832,16.874c-0.009,3.72-0.009,6.093-0.016,11.241
		c1.903-1.293,4.068-3.029,5.551-4.145c-0.011-1.906-0.011-6.188,0.006-9.135C217.635,170.37,220.616,164.142,222.24,159.033z"/>
	<path fill="#FF6600" d="M178.636,159.03h-6.806l-9.039,54.026c4.078-1.263,5.549-1.868,6.963-2.566
		c0.664-4.707,1.481-9.895,2.046-13.493c2.248-0.813,4.369-1.379,6.929-1.936c0.55,3.245,1.027,6.832,1.549,10.379
		c2.506-0.904,4.365-2.067,5.683-2.929c-2.099-14.455-4.56-28.636-7.323-43.478L178.636,159.03L178.636,159.03z M172.782,190.162
		c0,0,2.007-16.646,2.628-16.704c0.622-0.058,2.273,15.326,2.273,15.326C176.032,189.394,174.956,189.701,172.782,190.162z"/>
	<path fill="#FF6600" d="M197.317,159.033v17.61h-0.521c0,0-2.424-11.117-4.263-17.61h-5.897v43.054l6.159-3.614l-0.169-20.067
		c2.261,6.324,3.425,10.691,5.258,16.619c1.76-1.031,3.491-2.037,5.335-3.449c0.015-10.701,0.015-21.556,0-32.542H197.317z"/>
	<path fill="#FF6600" d="M165.923,184.851l-0.022-20.002c0.008-2.626-1.369-5.81-5.438-5.816c-3.193,0.007-8.08,0-12.582,0v55.449
		c3.691,1.604,4.74,1.777,6.569,0.477l0.009-22.603C162.977,191.39,165.573,191.175,165.923,184.851z M154.458,186.114v-21.1h3.044
		c1.063-0.007,1.798,0.639,1.781,2.284c0.017,3.98,0.017,11.419,0.025,16.012C159.3,184.991,158.396,185.854,154.458,186.114z"/>
</g>
<path fill="#231F20" d="M260.635,162.803c0.421,0.417,0.623,0.923,0.623,1.51c0,0.605-0.202,1.11-0.623,1.532
	c-0.412,0.421-0.919,0.635-1.515,0.635c-0.599,0-1.103-0.214-1.518-0.635c-0.409-0.422-0.615-0.927-0.615-1.532
	c0-0.587,0.206-1.093,0.622-1.51c0.414-0.424,0.925-0.633,1.511-0.633C259.716,162.172,260.223,162.381,260.635,162.803
	L260.635,162.803z M260.884,162.56c-0.482-0.481-1.069-0.72-1.764-0.72c-0.686,0-1.266,0.238-1.757,0.72
	c-0.482,0.491-0.729,1.071-0.729,1.757c0,0.698,0.247,1.288,0.729,1.771c0.483,0.491,1.063,0.736,1.757,0.736
	c0.692,0,1.277-0.244,1.764-0.736c0.488-0.49,0.727-1.078,0.727-1.771C261.61,163.632,261.372,163.044,260.884,162.56
	L260.884,162.56z M259.492,164.204c-0.105,0.038-0.254,0.06-0.465,0.06h-0.431v-0.988h0.411c0.267,0,0.46,0.038,0.579,0.106
	c0.127,0.063,0.187,0.199,0.187,0.398C259.775,163.987,259.678,164.13,259.492,164.204L259.492,164.204z M258.113,165.677h0.483
	v-1.075h0.38c0.254,0,0.433,0.028,0.535,0.089c0.173,0.104,0.264,0.313,0.264,0.63v0.217l0.005,0.089
	c0,0.007,0.008,0.015,0.008,0.029c0,0.009,0.007,0.018,0.007,0.023h0.457l-0.023-0.03c-0.006-0.022-0.017-0.073-0.023-0.14
	c-0.007-0.076-0.007-0.144-0.007-0.209v-0.201c0-0.135-0.045-0.276-0.148-0.424c-0.096-0.142-0.255-0.23-0.47-0.267
	c0.17-0.024,0.296-0.067,0.396-0.126c0.179-0.119,0.268-0.299,0.268-0.543c0-0.343-0.142-0.572-0.424-0.691
	c-0.157-0.068-0.408-0.1-0.745-0.1h-0.96L258.113,165.677L258.113,165.677L258.113,165.677z"/>
</svg>
