<?xml version="1.0" encoding="utf-8"?>
<!-- Generator: Adobe Illustrator 23.0.3, SVG Export Plug-In . SVG Version: 6.00 Build 0)  -->
<svg version="1.1" id="logosvg.com" xmlns="http://www.w3.org/2000/svg" xmlns:xlink="http://www.w3.org/1999/xlink" x="0px"
	 y="0px" viewBox="0 0 400 300" style="enable-background:new 0 0 400 300;" xml:space="preserve">
<path id="black" d="M60.6,187.3l-0.1-0.1l0.2-2l0.5,0.4c0.3,0.2,2.7,2.3,6.2,3.4c1.7,0.5,3.5,0.8,5.2,0.8c3.2,0,6.5-0.9,9.6-2.8
	c5.6-3.3,8-9.3,9.1-13.8c1.1-4.9,0.9-9.1,0.9-9.1v0L92,101.7v0v0c0-0.1,0.2-2.8,1.9-4.1c1.2-0.9,2.5-1.4,3.1-1.6v-2H82.3v2
	c0.6,0.2,2,0.7,3.2,1.6c1.5,1.2,1.8,3.3,1.9,4v0v0c0.1,20.1,0.1,65.4,0.1,67.3c0,3.9-1.1,7.1-3.2,9.4c-2.7,3-5.7,3.6-7.7,3.6h-0.1
	c-2.4,0-5.1-1.2-7.2-3.1c-2.2-2-2.9-6.3-2.9-7.3l-0.2-69.9v0v0c0.1-1,0.4-2.4,1.2-3.5c1.1-1.6,3-2,3.7-2.1v-2.1H50.5v1.9
	c0.6,0.1,2,0.5,3.3,1.8c1.3,1.3,1.6,3.2,1.6,4.4h0v0.2l0,70.1H54v-70.1c0-0.7-0.2-2.5-1.1-3.5c-1.2-1.1-2.6-1.3-2.7-1.4
	C49.5,97.3,49,96.7,49,96v-2.5c0-0.7,0.6-1.3,1.2-1.3h21.1c0.7,0,1.2,0.6,1.2,1.3v2.7c0,0.7-0.5,1.2-1.1,1.3c-0.2,0-2,0.3-2.9,1.5
	c-0.5,0.8-0.8,1.8-0.9,2.6l0.2,69.8c0,1.1,0.8,4.6,2.4,6.1c1.8,1.6,4.2,2.7,6.2,2.7h0.1c2.5,0,4.7-1,6.6-3.1c1.8-2,2.8-4.9,2.8-8.3
	c0-1.9-0.1-47.2-0.1-67.3v0c-0.1-0.5-0.3-2-1.2-2.8c-1.2-1-2.9-1.4-2.9-1.4c-0.5-0.2-0.9-0.7-0.9-1.3v-2.6c0-0.7,0.6-1.3,1.2-1.3
	h15.3c0.7,0,1.2,0.6,1.2,1.3v2.6c0,0.6-0.4,1.1-0.9,1.3c0,0-1.5,0.4-2.8,1.4c-1,0.8-1.2,2.5-1.2,2.9v1.5c0,23.3,0.1,62.3,0.1,62.5
	c0,1.8-0.2,4.7-0.9,8c-1.6,6.9-5,12-9.9,14.8c-3.4,2-6.9,3-10.4,3c-1.9,0-3.8-0.3-5.7-0.9C63.5,189.6,61.4,188,60.6,187.3
	 M59.7,175.4L57,207.4c-0.1,0.7-0.6,1.2-1.2,1.2l-39,0.1c-0.3,0-1.2,0-1.2-1.3l0-3.2c0-0.7,0.5-1.2,1.1-1.3c0.3,0,1.8-0.4,3-2.1
	c0.6-0.8,0.6-2.8,0.6-3.2l-0.2-96c0-0.2-0.1-1.6-1.1-2.7c-0.8-1-1.9-1.3-2.6-1.5l-0.3-0.1c-0.5-0.2-0.9-0.6-0.9-1.2v-0.5
	c0-0.8,0-2,0-2c0-0.4,0.1-0.7,0.4-0.9c0.2-0.2,0.6-0.4,0.9-0.4h22.2c0.7,0,1.2,0.6,1.2,1.3v2.6c0,0.6-0.4,1.2-1,1.3
	c-0.2,0-1.7,0.4-2.6,1.2c-1,1-1.3,2.4-1.3,2.5c0,0.1,0,32.9,0,60.8l0,38.4c0,0,5.9,0,7,0c0.3,0,2.5-0.1,5-2.1c1.1-0.9,1.9-2,2.4-3.1
	l0.1-0.1c0.2-0.4,0.6-1.5,0.8-2.6c0.1-0.7,2.2-17.1,2.3-17.3c0.1-0.7,0.6-1.1,1.2-1.1l4.9,0c0.4,0,0.7,0.2,0.9,0.4
	C59.6,174.7,59.7,175.1,59.7,175.4 M72,193.7c3,0,5.4-0.6,6.9-1.2c6.5-2.3,11.1-6.3,13.9-11.9c1.7-3.5,2.6-7.6,2.8-12.3
	c0.3-8.8,0.3-65.6,0.3-66.5c0,0,0.1-0.9,0.4-1.3c0.7-0.7,3.6-2,3.6-2c0.6-0.2,0.9-0.9,0.9-1.5v-5.8c0-0.4-0.1-0.8-0.4-1
	c-0.3-0.3-0.6-0.4-1-0.4H79.8c-0.4,0-0.7,0.2-1,0.4c-0.2,0.2-0.4,0.6-0.4,1v6.7c0,0.6,0.4,1.2,1,1.3l0,0l0,0
	c2.9,0.5,3.6,1.7,3.8,2.9c0,0,1,65.7,0,69.7c0,0,0,0,0,0c0,0,0,0,0,0c-0.3,1.4-1,2.8-2,3.9c-1.2,1.3-2.8,2-4.8,2
	c-0.8,0-2.7-0.2-4.3-1.8c-1.4-1.4-2-3.6-2-6.3v0c0-0.5,0-12.2,0-65c0-1.7,0-2.9,0-2.9c0-0.7,0-0.9,0.4-1.1c0.5-0.4,1.5-0.7,3.5-1.2
	l0,0c0.6-0.2,1-0.7,1-1.3v-6.7c0-0.4-0.1-0.8-0.4-1c-0.3-0.3-0.6-0.4-1-0.4H48.3c-0.4,0-0.7,0.2-1,0.4c-0.2,0.2-0.4,0.6-0.4,1v6.7
	c0,0.6,0.4,1.2,1,1.3v0h0c2,0.5,3,0.9,3.5,1.2c0.4,0.3,0.4,0.5,0.4,1.1l0,69.9c0,0-1.6,0.1-1.7,1.2c-0.9,5.2-1.3,9.5-1.6,12.9
	c-0.5,4.8-0.7,7.9-2.2,9.7c-1.4,1.8-3.9,2.5-8.9,2.5v-96.7c0-0.3,0.1-0.5,0.3-0.7c0.5-0.5,2.2-0.7,3.2-0.9l0.1,0
	c0.7-0.1,1.1-0.7,1.1-1.4v-6.9c0-0.8-0.7-1.5-1.4-1.5H14.1c-0.4,0-0.7,0.2-1,0.4c-0.2,0.2-0.4,0.6-0.4,1v6.7c0,0.6,0.4,1.2,1,1.3
	l0,0c2,0.5,3,0.9,3.5,1.2c0.4,0.3,0.4,1.3,0.4,1.3c0,0.4,0,96.4,0,97.3c0,1.1-1.5,1.5-1.6,1.5c0,0-1.3,0.2-1.7,0.3
	c-0.6,0.1-1.1,0.7-1.1,1.3v0v0v7.6c0,0.3,0,0.7,0.3,1c0.3,0.3,0.7,0.3,0.8,0.3h0.1h0.1h43.4c0.7,0,1.3-0.6,1.3-1.3l1.6-19.5
	c0.9,0.6,2.5,1.7,4.6,2.4C67.6,193.3,69.7,193.7,72,193.7 M384.5,208.3c-0.2,0.2-0.6,0.4-0.9,0.4h-22.4c-0.7,0-1.2-0.6-1.2-1.3v-3
	c0-0.6,0.5-1.2,1.1-1.3c0.1,0,1-0.2,1.7-0.6c0.5-0.3,1.1-0.8,1.4-1.5c0.3-0.7,0.5-1.9,0.6-3.3c0,0,0-69.3,0-76c-0.6,0-1.4,0-2,0
	c-0.8,4.2-11.6,58.1-11.7,58.7c-0.2,1.2-0.6,2.4-1.3,2.4c-0.8,0-1-1.4-1.2-2.3c-0.1-0.3-11.1-53.6-12.2-58.7h-1.8l-0.1,58.1
	c0,0,0,0.9,0.3,1.7c0.2,0.7,0.7,1.5,1,1.8c0.2,0.3,0.7,0.8,1.3,1.1c0.7,0.5,1.5,0.8,1.5,0.8c0.5,0.2,0.8,0.7,0.8,1.2v3
	c0,0.4-0.2,0.9-0.6,1.1c-0.2,0.1-0.4,0.2-0.7,0.2c-0.2,0-0.4,0-0.5-0.1l-8.2-3.9l-6.7-3.1c-0.5-0.2-0.7-0.7-0.7-1.2V179
	c0-0.6,0.4-1.2,1-1.3c0,0,0,0,0,0c0.8-0.2,1.3-0.4,1.7-0.5c0.5-0.2,1-0.6,1.3-0.8c0.3-0.2,0.7-0.8,0.9-1.3c0.2-0.5,0.2-1,0.2-1.1
	v-4.2c0-59.4,0-67.5,0-67.5c0-0.1,0-0.7-0.1-1.3c-0.2-0.6-0.5-1.3-0.8-1.6c-0.3-0.3-0.8-0.8-1.5-1.1c-0.7-0.4-1.5-0.5-1.5-0.5
	c-0.6-0.1-1-0.6-1-1.3l0-2.9c0-0.3,0.1-0.7,0.4-0.9c0.2-0.2,0.6-0.4,0.9-0.4h17.2c0.6,0,1.1,0.4,1.2,1c8,39.5,8.9,44.3,9,44.8
	c0.4,0,1.1,0,1.6,0c0.7-3.7,8.9-44.6,8.9-44.8c0.1-0.6,0.6-1,1.2-1h20.9c0.7,0,1.2,0.6,1.2,1.3v2.8c0,0.6-0.4,1.1-1,1.3
	c-0.2,0.1-0.9,0.2-1.6,0.6c-0.6,0.3-1.1,0.7-1.3,0.9c-0.3,0.3-0.7,0.9-0.9,1.4c-0.2,0.6-0.3,1.3-0.3,1.4c0,1.4,0,96.4,0,97.2
	c0,0,0,0.7,0.3,1.4c0.2,0.5,0.8,1.2,1.1,1.4c0.2,0.2,0.8,0.6,1.4,0.8c0.6,0.2,1.3,0.3,1.3,0.3c0.6,0.1,1.1,0.6,1.1,1.3
	c0,3.1,0,3.1,0,3.1C384.9,207.7,384.7,208,384.5,208.3 M325.6,173.7c0,0.5-0.2,0.9-0.6,1.2c-0.4,0.4-1,0.4-1.2,0.4
	c-0.3,0-0.6-0.1-0.3-1.5c0.3-1.3,1.9-10.1,1.9-10.1c0-0.4,0.4-1,0.4,0C326,164.7,325.6,173.2,325.6,173.7 M319.5,182
	c-0.1,0-11.4-4.5-16.8-6.4c-4.9-1.7-12-4-13.3-4.4l0,0c-0.5-0.2-0.9-0.7-0.9-1.2v-3c0-0.7,0.5-1.2,1.2-1.3l0,0
	c0.6,0,1.1-0.2,1.5-0.3c0.6-0.2,1-0.5,1.1-0.7c0.2-0.2,0.5-0.6,0.6-1.1c0.2-0.7,0.2-1.5,0.3-1.7v0v-59.4c0,0,0-1-0.3-1.8
	c-0.2-0.6-0.5-1.2-0.8-1.5c-0.4-0.5-1.9-1.2-3-1.6c-0.5-0.2-0.9-0.7-0.9-1.3l-0.1-2.8c0-0.7,0.6-1.3,1.2-1.3h20.8
	c0.7,0,1.2,0.6,1.2,1.3v2.7c0,0.6-0.3,1.1-0.8,1.2c-2.8,0.9-3.4,2.2-3.6,2.6c-0.3,0.7-0.4,1.3-0.4,1.4c0,9.6,0,34.7,0,49.6
	c0,9,0,16.4,0,17.6c1.7,0.7,3.2,1,4.6,1c1.3,0,1.9-0.3,1.9-0.3l0.1,0c2.3-0.9,3.4-4,3.5-4.3c0.1-0.4,3.7-13.5,3.7-13.6l0,0v0
	c0,0,0.3-0.8,1.2-0.8c0.7,0,3,0,3,0c0.4,0,0.7,0.2,0.9,0.5c0.2,0.3,0.3,0.7,0.3,1.1l-4.7,28.9C320.9,182.3,319.6,182.1,319.5,182
	 M284,169.1c-0.2,0.2-0.5,0.3-0.8,0.3c-0.2,0-0.8-0.2-1-0.2c-1.8-0.5-19.7-4.7-19.8-4.7c-0.6-0.1-1-0.7-1-1.3v-2.9
	c0-0.6,0.5-1.2,1.1-1.3c0.2,0,0.9-0.2,1.5-0.5c0.6-0.3,1.2-1,1.4-1.3c0.1-0.2,0.4-0.8,0.6-1.5c0.2-0.7,0.2-1.5,0.2-1.5l0-3.6
	c0-13.2-0.1-48-0.1-49v0c0-0.2-0.1-0.9-0.3-1.4c-0.2-0.5-0.5-1-0.7-1.2l0,0c-0.1-0.2-0.5-0.5-0.9-0.8l-1-0.6
	c-0.3-0.2-0.7-0.7-0.7-1.2v-2.8c0-0.7,0.6-1.3,1.2-1.3l18.1-0.1c0.3,0,0.7,0.1,0.9,0.4c0.2,0.2,0.4,0.6,0.4,0.9v2.9
	c0,0.5-0.4,1-0.7,1.2l-0.8,0.5c-0.5,0.4-1,0.9-1.2,1.2c-0.1,0.2-0.4,0.7-0.5,1.1c-0.2,0.8-0.3,1.6-0.3,1.8c0,1.3,0,56.2,0,56.2
	c0,0,0.1,0.9,0.3,1.7c0.5,2.1,3.7,3.6,3.7,3.6c0.5,0.2,0.9,0.7,0.9,1.2l0,3.2C284.5,168.5,284.3,168.9,284,169.1 M259,109.7
	c0,0.7-0.6,1.3-1.2,1.3h-5c-0.7,0-1.3-0.6-1.3-1.3l0-4.2c0-0.2-0.1-1-0.4-1.8c-0.3-0.7-1-1.5-1.3-1.8c-0.3-0.3-1.1-0.8-1.8-1.1
	c-1-0.4-2.1-0.4-2.1-0.4h-6.3c0,2.5,0,19.1,0,21.7l5,0c0.1,0,0.7-0.1,1.1-0.3c0.5-0.2,0.9-0.7,1.1-0.9c0.2-0.2,0.7-0.9,0.9-1.5
	c0.3-0.6,0.3-1.2,0.3-1.2c0.1-0.6,0.6-1.1,1.2-1.1h4.2c0.7,0,1.2,0.6,1.2,1.3v15.2c0,0.7-0.6,1.3-1.2,1.3h-4.1c-0.6,0-1.1-0.4-1.2-1
	v0v0l0,0c0-0.1-0.2-0.9-0.5-1.5c-0.3-0.6-1.7-2.6-3.2-2.6l-4.8,0c0,3.7,0.1,22,0.1,22c0,0,0,0.7,0.3,1.4c0.2,0.5,0.6,1.1,0.9,1.4
	c0.2,0.2,1,0.8,1.6,1c0.6,0.3,1.1,0.3,1.1,0.3c0.6,0.1,1.1,0.6,1.1,1.3v2.8c0,0.4-0.1,0.7-0.4,1c-0.2,0.2-0.5,0.3-0.8,0.3
	c0,0-0.1,0-0.1,0l-2.8-0.3c-4.8-0.5-5.6-0.6-6.9-0.7c-2.9-0.2-8-0.7-10.1-0.9l-0.1,0c-0.6-0.1-1.1-0.6-1.1-1.3v-3
	c0-0.6,0.4-1.2,1.1-1.3c0,0,0.8-0.1,1.4-0.5c0.6-0.3,1.2-0.8,1.4-1.1c0.2-0.2,0.5-0.8,0.7-1.4c0.2-0.7,0.2-1.4,0.2-1.5
	c0-0.7-0.1-47.3-0.1-47.3c0,0,0-0.9-0.3-1.6c-0.2-0.6-0.6-1.1-0.8-1.2c-0.2-0.2-0.8-0.7-1.4-1c-0.7-0.3-1.4-0.5-1.4-0.5
	c-0.6-0.1-1-0.7-1-1.3l0-2.8c0-0.3,0.1-0.7,0.4-0.9c0.2-0.2,0.6-0.4,0.9-0.4h34.4c0.7,0,1.2,0.6,1.2,1.3L259,109.7L259,109.7z
	 M218.2,111.7c0,0.7-0.6,1.3-1.2,1.3h-4.6c-0.7,0-1.2-0.6-1.2-1.3v-3.3c0-0.3,0.1-2-0.5-3.7c-0.2-0.7-0.8-1.5-1.2-2.3
	c-1.2-1.9-3.8-2.8-5.2-2.8c-1.3,0-2.8,0.6-3.7,1.5c-0.5,0.5-1,1.1-1.2,1.5c-0.4,1-0.5,1.9-0.5,1.9v7.9c0,0,0,0.9,0.3,1.8
	c0.2,0.6,0.7,1.4,0.9,1.7c0.2,0.3,1.4,1.2,2.5,2l2.3,1.5c2.7,1.8,7.3,4.7,7.3,4.7c0.1,0.1,1.4,1,2.5,2.1c0.9,0.9,1.6,2.1,2,2.9
	c0.4,0.8,1,2.1,1.2,3.4c0.3,1.6,0.3,3.1,0.3,3.1v11.5v0c0,0.2-0.3,4.2-2.8,7.1c-1.5,1.8-3.1,3.1-4.7,3.8c-2.3,1.1-4.2,1.3-6.5,1.3
	c-2.4,0-5-0.4-6.8-1.2c-1.3-0.5-3.2-1.6-4.2-2.2c0,0.9,0,2.1,0,2.1c0,0.3-0.1,0.7-0.4,0.9c-0.2,0.2-0.6,0.4-0.9,0.4h-4.5
	c-0.3,0-0.6-0.1-0.9-0.4c-0.2-0.2-0.4-0.6-0.4-0.9v-21c0-0.7,0.6-1.3,1.2-1.3h4.3c0.7,0,1.2,0.6,1.2,1.3l0,7.6c0,0,0,0.9,0.3,2
	c0.3,0.9,0.8,1.8,1.2,2.3c0.7,0.8,1.8,1.5,2.6,1.8c0.5,0.2,1,0.2,1.6,0.2c0,0,1.9,0,2.9-0.5c0.7-0.3,1.5-1,2.2-1.9
	c0.3-0.3,0.6-0.9,0.8-1.5c0.4-1.3,0.4-2.9,0.4-3.1v-6.1c0,0,0-1.1-0.3-2c-0.1-0.5-0.4-0.9-0.6-1.2l-0.1-0.1c-0.1-0.2-0.4-0.6-0.9-1
	c-0.7-0.6-1.5-1.1-1.7-1.2c-0.4-0.3-9.7-6.4-9.8-6.5c-0.2-0.1-1-0.8-1.9-1.6c-0.9-0.9-1.7-2-2.2-2.9c-0.4-0.8-0.9-2.1-1.2-3.3
	c-0.3-1.6-0.3-3.1-0.3-3.2v-13.6v0v0c0-0.2,0.3-4.1,3.1-6.6c1.2-1.1,2.3-2.1,3.9-2.7c2.3-1,4.9-1.2,5.7-1.2c0,0,1.1-0.1,4.2,0.5
	c1.3,0.2,2.7,0.8,4.3,1.6c1,0.5,2.4,1.5,3.3,2.2v-1.5c0-0.7,0.6-1.3,1.2-1.3h4.8c0.7,0,1.2,0.6,1.2,1.3L218.2,111.7L218.2,111.7z
	 M183.6,158.5c0,0.7-0.5,1.2-1.1,1.3c0,0-17.5,2-17.5,2c-0.3,0-0.6-0.1-0.8-0.3c-0.3-0.2-0.4-0.6-0.4-1v-2.7c0-0.6,0.4-1.1,0.9-1.2
	c0,0,0.6-0.2,1.1-0.6c0.4-0.3,0.8-0.9,0.9-1.1c0.1-0.2,0.3-0.7,0.3-1.2c0-0.1,0-0.2,0-0.4c0-0.5-0.2-1.8-0.2-1.8l-0.2-1.2l-0.6-3.7
	c-0.4-2.6-0.9-5.5-1.1-6.7h-11.3l-0.7,4.8l-0.1,0.6c-0.7,4.4-1.6,10.4-1.6,10.5c0,0-0.2,1.2,0.5,1.8c0.1,0.1,0.6,0.5,1.1,0.6
	c0.4,0.1,1.1,0.1,1.1,0.1c0.3,0,0.6,0.1,0.9,0.4c0.2,0.2,0.4,0.6,0.4,0.9v2.7c0,0.6-0.4,1.2-1,1.3l-12.5,2.6c-0.1,0-0.2,0-0.2,0
	c-0.3,0-0.6-0.1-0.8-0.3c-0.3-0.2-0.5-0.6-0.5-1v-2.4c0-0.4,0.2-0.8,0.5-1c0,0,0.8-0.6,1.4-1.4c0.5-0.6,0.9-1.3,1.1-1.8
	c0.2-0.4,0.6-2.2,0.8-3.3c0.4-2.9,7.7-52.1,7.7-52.1c0,0,0.2-0.9,0.1-1.9c-0.1-0.7-0.4-1.4-0.7-1.8c-0.2-0.3-0.7-0.8-1.1-1.1
	c-0.8-0.4-1.6-0.6-1.7-0.6c-0.6-0.1-1-0.7-1-1.3l0-2.7c0-0.7,0.6-1.3,1.2-1.3h27.9c0.7,0,1.2,0.6,1.2,1.3v2.9c0,0.4-0.1,0.7-0.4,0.9
	c-0.2,0.2-0.5,0.4-0.9,0.4c0,0-1.1,0-1.5,0.1c-0.7,0.2-1.3,0.6-1.5,0.8c-0.5,0.4-0.8,0.8-0.9,1c-0.3,0.7-0.3,1.1-0.3,1.5
	c0,0,7.6,49.1,7.6,49.5c0,0,0,0,0,0c0.1,0.6,0.3,1,0.4,1.3c0.2,0.4,0.5,0.8,0.7,1c0.1,0.2,0.5,0.5,1,0.7l0.9,0.4
	c0.5,0.2,0.9,0.7,0.9,1.2L183.6,158.5L183.6,158.5z M137,161c-0.8,2.6-2.7,5.1-4.1,6.5c-2.4,2.3-4.8,3.8-7.2,4.6
	c-1.2,0.4-3.2,0.9-6.1,0.9c0,0-0.8,0-1.1,0c-1.4,0-2.8-0.1-4.2-0.4c-2.7-0.5-5.4-1.7-6.7-2.8c-1-0.9-2.9-2.8-3.8-5.1
	c-1.1-2.8-1-5.8-1-5.8v-55.5v0c0-0.4,0.2-2.5,1.3-4.8c1.1-2.2,4-4.9,6.4-5.9c0.1-0.1,3.7-1.8,7.7-1.8c0.4,0,0.9,0,1.3,0.1
	c2.1,0.2,4.6,0.8,6.8,1.7c1,0.4,2,0.9,3,1.5v-0.6c0-0.7,0.6-1.3,1.3-1.3h5.8c0.7,0,1.2,0.6,1.2,1.3l0,22.5c0,0.3-0.1,0.7-0.4,0.9
	s-0.6,0.4-0.9,0.4h-5.6c-0.7,0-1.2-0.6-1.2-1.3v-8.3c0-0.2-0.3-5.3-3.4-7.7c-1.1-0.8-2.3-1.3-3.6-1.3c-1.9,0-3.4,0.9-4,1.4
	c-1.5,1.3-2.3,3.3-2.3,5.7l0,51c0,0.3,0.1,1.2,0.5,2.1c0.4,0.9,1.1,2,1.7,2.5c0.5,0.5,1.4,1.2,2.2,1.4c0.7,0.2,1.4,0.3,1.8,0.3
	c0,0,1.7,0,3.1-0.6c1-0.4,2-1.2,2.6-1.9c0.4-0.4,1-1.4,1.4-2.6c0.4-1.3,0.4-2.8,0.4-2.8l0-16.4c0-0.4,0.1-0.7,0.4-0.9
	c0.2-0.2,0.5-0.4,0.9-0.4h5.7c0.7,0,1.2,0.6,1.2,1.3v16C137.8,155.2,137.9,158.2,137,161 M387.1,202.1c0-0.7-0.5-1.3-1.2-1.4l-2-0.2
	c0,0-2-0.2-2-1.6l0-97.1c0-1.2,0.1-1.4,4.1-2.5l0,0c0.6-0.2,1-0.7,1-1.3v-6.7c0-0.4-0.1-0.8-0.4-1.1c-0.2-0.3-0.6-0.4-1-0.4l-25,0
	c-0.6,0-1.2,0.5-1.3,1.1c0,0-5.7,28.9-7.8,39c-2-10-7.8-38.7-7.9-39c-0.1-0.7-0.7-1.1-1.3-1.1h-21.3c-0.4,0-0.7,0.1-1,0.4
	c-0.2,0.2-0.4,0.6-0.4,1.1v6.7c0,0.6,0.4,1.2,1,1.3h0c2,0.5,3,0.9,3.5,1.2c0.4,0.3,0.4,0.5,0.4,1.1l0,0.1c0,0.7,0,41.7,0,46.3
	l-4.9,0c-0.6,0-1.1,0.4-1.3,1c0,0.2-4.2,15.3-4.3,15.7c-0.1,0.2-0.7,1.8-1.9,2.3h0l0,0c0,0-0.3,0.2-1,0.2c-0.7,0-1.5-0.2-2.4-0.5
	c0-4.7,0-64,0-65c0-0.1,0-0.1,0-0.2c0-0.6,0-0.9,0.4-1.1c0.5-0.3,1.5-0.7,3.4-1.2v0h0c0.6-0.2,1-0.7,1-1.3v-6.7
	c0-0.4-0.1-0.8-0.4-1.1c-0.3-0.3-0.6-0.4-1-0.4l-24.8,0c-0.4,0-0.7,0.1-1,0.4c-0.2,0.2-0.4,0.6-0.4,1.1V98c0,0.6,0.4,1.2,1,1.4h0
	c2.8,0.5,3.4,1.7,3.4,2.4l0,60c0,0.2-0.2,1.3-1.3,1.4l-2.1,0.2c-0.2,0-0.3,0.1-0.5,0.1c0,0,0.1-1.3-1-1.6c0,0-4.1-0.5-3.9-3.5
	l0-56.6c0-1,0.5-1.4,1.8-2.1c0.1-0.1,1.5-0.7,1.5-1.7v-6.7c0-0.4-0.1-0.8-0.4-1.1c-0.3-0.3-0.6-0.4-1-0.4l-22,0
	c-0.4,0-0.7,0.1-0.9,0.4c-0.3-0.3-0.6-0.4-0.9-0.4l-38.9,0c-0.3,0-0.7,0.1-0.9,0.4c-0.2-0.2-0.6-0.4-0.9-0.4h-9.3
	c-0.6,0-1.1,0.4-1.3,1c0,0-3.4-1.4-4.8-1.8c-2.2-0.5-4.4-0.5-4.7-0.6h-0.1c-1.1,0-4,0.3-6.5,1.3c-1.9,0.8-3.2,1.9-4.6,3.2
	c-3.4,3.2-3.8,7.8-3.9,8.3v0v0l0,13.7c0,0.3,0,1.9,0.4,3.7c0.4,1.8,1.2,3.5,1.4,3.9c0.6,1.1,1.6,2.5,2.6,3.5c1,1,1.9,1.7,2.2,1.9
	l0.1,0.1l0,0l0,0c0.4,0.3,9.6,6.3,9.7,6.4c0.1,0.1,0.9,0.7,1.5,1.1l0.4,0.5l0,0c0.2,0.3,0.2,0.4,0.3,0.4c0.1,0.5,0.2,1.2,0.2,1.4
	c0,0.1,0,4,0,6v0c0,1-0.4,2.4-1.2,3.3c-0.7,0.7-1.6,1.1-2.7,1.1c-0.4,0-1.5-0.1-2.4-1c-0.7-0.8-1.1-1.9-1.1-3.4v0c0-0.9,0-9.3,0-9.4
	c0-0.8-0.6-1.4-1.3-1.4h-8.8c-0.7,0-1.3,0.6-1.3,1.4l0,17.4c0,0-1.5-0.1-1.9-1.9c-0.4-2.7-7.4-47.1-7.5-47.9c-0.1-0.7,0-1.2,0.2-1.6
	c0.3-0.4,1-0.5,1.2-0.5c0.1,0,2.6,0,2.6,0c0.3,0,0.7-0.1,0.9-0.4c0.3-0.3,0.4-0.6,0.4-1l0-7.6c0-0.8-0.6-1.4-1.3-1.4h-32.4
	c-0.4,0-0.7,0.1-1,0.4c-0.2,0.2-0.4,0.6-0.4,1.1v6.7c0,0.6,0.4,1.2,1,1.3c0,0,2.9,0.3,3.4,1.2c0.2,0.4,0.3,0.7,0.3,1.2l-7.9,53
	c-0.2,1.3-0.5,2.4-0.6,2.6c0,0-0.5,1.2-1.2,1.7c0.2-1.8,0.3-3.8,0.3-3.8v-18.3c0-0.8-0.6-1.4-1.3-1.4h-10.2c-0.4,0-0.7,0.1-1,0.4
	c-0.3,0.3-0.4,0.6-0.4,1v18.8c0,1.2-0.4,2.8-1.5,3.9c-0.8,0.9-1.9,1.3-3.2,1.3c-0.5,0-1.8-0.1-2.8-1.2c-0.9-0.9-1.3-2.3-1.3-4v0
	c0-0.8,0-51.1,0-51.1c0-0.1,0.1-0.9,0.5-1.7c0.6-1.1,1.5-1.6,2.9-1.6c4.1,0,5.1,2.9,5.3,7.4v0.1v9.7c0,0.8,0.6,1.4,1.3,1.4h10.1
	c0.4,0,0.7-0.2,1-0.4c0.3-0.3,0.4-0.6,0.4-1V91.2c0-0.8-0.6-1.4-1.4-1.4h-10.3c-0.8,0-1.2,0.7-1.2,0.7h0c-2.4-1-5.1-1.7-7.4-1.9
	c-0.5,0-1-0.1-1.5-0.1c-4.4,0-8.1,1.8-8.7,2.1c0,0-4.9,2.5-7.5,7.1c-1.5,2.7-1.3,5.7-1.3,5.9l0,55.5l0,0.1c0,4.7,1.5,8.7,4.4,11.6
	c3.1,3.2,7.9,4.9,13.7,4.9c0.1,0,0.6,0,0.6,0c4.8-0.1,9-1.4,12.5-3.9c3-2.2,4.9-4.9,5.9-6.7v3c0.1,1.2,1.1,1.7,1.8,1.7
	c0.1,0,17.2-3.8,17.2-3.8c0.5-0.2,0.8-0.7,0.8-1.2v-7.3c0-0.4-0.1-0.8-0.4-1c-0.3-0.3-0.6-0.4-0.9-0.4c0,0-2.5,0.1-2.6,0.1
	c0.2-1.3,2-13.5,2-13.5h7.3c0.4,2.1,1.6,9.6,1.7,10c0,0,0.2,1.7-1.2,2c-0.9,0.2-2,0.6-1.9,1.7l0,1.7v5.6c0,0.4,0.2,0.8,0.4,1
	c0.3,0.2,0.6,0.4,0.9,0.4l0.1,0c6.2-1,21.7-2.8,21.7-2.8c0.2,0,0.4-0.1,0.5-0.2c0.2,0.1,0.4,0.2,0.6,0.2c0,0,6.7-0.4,9.5-0.5
	c0,0,0.7-0.1,0.7-1.2c0,0,0-0.1,0-0.3c0.3,0.2,0.6,0.3,0.9,0.4c0.9,0.4,1.9,0.7,3.1,0.9c1.5,0.3,3.1,0.5,4.6,0.5
	c1.8,0,3.4-0.2,4.8-0.6c0.9-0.2,1.7-0.6,2.6-1c1.9-0.9,3.8-2.4,5.5-4.4c3-3.5,3.3-8,3.3-8.6c0-0.3,0-11.7,0-11.7
	c0-0.2,0-1.8-0.4-3.6c-0.3-1.5-1-3.1-1.4-4c-0.2-0.5-1.1-2-2.4-3.4c-1.3-1.3-2.9-2.5-2.9-2.5s0,0-9.6-6.2c-2.3-1.5-2.6-2.5-2.6-3.4
	v-7.4c0-0.3,0.2-2.8,2.9-2.8c3.6,0,4.5,2.6,4.6,6.6c0,0.4,0,5.2,0,5.4c0,0.8,0.6,1.4,1.3,1.4h9.1c0.7,0,1.4-0.6,1.4-1.4l0-14.8
	c0.1,0,2.9,0.6,3.7,1.3c0.3,0.3,0.4,0.5,0.4,1.1l0.1,47.5c-0.3,2.3-3.4,2.5-3.4,2.5c-0.6,0.1-1.1,0.7-1.1,1.4l0,7.1
	c0,0.7,0.5,1.3,1.2,1.4l1.4,0.2l0.4,0c7.6,0.4,14.9,1.2,22.5,2.3c0,0,0.5,0,0.9-0.4c0.3-0.3,0.4-0.7,0.4-1.1v-7.5
	c0-0.7-0.5-1.3-1.1-1.4c0,0-3.7-0.5-3.8-2.1c0-0.5-0.1-19.4-0.1-19.4c1,0,2.2,0,2.4,0c1.2-0.1,1.5,2.9,1.8,4.1
	c0.1,0.7,0.7,1.1,1.3,1.1h8.2c0.7,0,1.4-0.6,1.4-1.4v-19.9c0-0.8-0.6-1.4-1.4-1.4h-8.4c-0.7,0-1.2,0.5-1.3,1.2l-0.3,2
	c0,0-0.3,1.7-1.2,1.8H242c0-4.7,0-14.6,0-16.8h3.9c0.2,0,0.9,0.1,1.4,0.3c0.2,0.1,0.7,0.4,1,0.6c0.2,0.2,0.6,0.7,0.7,1
	c0.2,0.4,0.2,0.7,0.2,0.9v6.4c0,0.8,0.6,1.4,1.3,1.4h9.5c0.7,0,1.4-0.6,1.4-1.4V99.2c0.1,0,2.4,0.7,2.4,2v0.1
	c0,0.6,0.1,52.9,0.1,52.9c0,0,0,2.1-1.6,2.3l-2,0.3c-0.7,0.1-1.2,0.7-1.2,1.4l0,6.9c0,0.5,0.2,0.9,0.6,1.2c0,0,26.2,6.2,26.2,6.2
	c0.1,0,0.2,0,0.3-0.1c0.1,0.1,0.2,0.2,0.3,0.3l0.1,0c1.6,0.5,3.1,0.9,4.5,1.3c20.2,6.1,38,14.4,49.3,20.4c0,0,0.3,0.2,0.9-0.2
	c0.4-0.2,0.6-0.7,0.6-1.2l0-8.3c0-0.6-0.3-1.1-0.8-1.3c0,0-4.1-1.3-4.1-3.9c0-2.6,0-29.1,0-43.8c2.9,14,10,48.1,10.1,48.5
	c0,0.1,0.2,0.9,0.5,1.2c0.3,0.3,0.7,0.4,1.1,0.4c0,0,2.4,0,2.4,0c0.1,0,0.5-0.1,0.9-0.4c0.4-0.3,0.6-1.1,0.6-1.1s6.9-34.5,9.8-48.6
	c0,17.7,0,61.3,0,62c0,0.8-0.2,1.7-0.2,2c-0.2,0.6-1.3,1-1.5,1c-0.1,0-0.5,0.1-1.9,0.3c-0.7,0.1-1.1,0.7-1.1,1.4l0,7.4
	c0,0.8,0.6,1.4,1.3,1.4h26.9c0.4,0,0.7-0.2,1-0.4c0.2-0.3,0.4-0.6,0.4-1C387.2,209.6,387.2,209.6,387.1,202.1 M161.9,183.5
	c-4,0-7.7,1.8-10.3,5.1l-20.9,0.1c-0.4,0-1.2-0.4-1.2-1.2c0-0.9,0.7-1.2,1.3-1.2c0.4,0,0.8,0.4,1,0.7c0.2,0.3,0.6,0.6,1.1,0.6
	c0.3,0,0.6-0.1,0.8-0.3c0.6-0.5,0.5-1.5,0.1-2.1c-0.6-0.9-1.7-1.5-3.1-1.5h-0.1c-0.9,0-1.9,0.5-2.6,1.2c-0.5,0.5-1.1,1.4-1.1,2.8
	c0,2.9,2.4,4,3.7,4c0,0,0,0,0.1,0c0.1,0,21.5-0.1,22.6-0.1h0.1l0.1-0.1c1.9-2.9,5.1-4.6,8.4-4.6c5.7,0,10.4,4.9,10.4,10.9
	c0,6-4.7,10.9-10.4,10.9c-3.4,0-6.7-1.8-8.6-4.8l-0.1-0.1h-0.1l-71.5-0.1c-1.5,0.1-3.4,1.9-3.3,4c0,2.6,2,4,3.9,4h0
	c1.1,0,2.3-0.7,2.7-1.2c0.7-0.8,0.8-1.7,0.3-2.3h0l0,0c-0.2-0.2-0.5-0.3-0.8-0.3c-0.6,0-1.1,0.4-1.3,0.6c-0.2,0.2-0.5,0.5-0.9,0.5
	c-0.7,0-1.2-0.6-1.2-1.2c0-0.6,0.5-1.2,1.1-1.2c0,0,66.9,0.1,69.3,0.1c2.6,3.4,6.4,5.3,10.5,5.3c7.4,0,13.4-6.3,13.4-14.1
	C175.3,189.8,169.3,183.5,161.9,183.5 M332.5,203.4l-71.5,0.1h-0.1l-0.1,0.1c-1.9,3-5.1,4.8-8.6,4.8c-5.7,0-10.4-4.9-10.4-10.9
	c0-6,4.6-10.8,10.4-10.8c3.3,0,6.5,1.7,8.4,4.6l0.1,0.1h0.1c1.1,0,23.7,0.1,23.8,0.1c0,0,0,0,0,0c1.3,0,3.7-1.2,3.7-4
	c0-1.3-0.6-2.3-1.1-2.8c-0.7-0.7-1.7-1.2-2.6-1.2h0c-1.4,0-2.6,0.6-3.1,1.5c-0.4,0.7-0.5,1.7,0.1,2.2c0.2,0.2,0.5,0.3,0.8,0.3
	c0.4,0,0.8-0.2,1.1-0.5c0.2-0.3,0.6-0.7,1-0.7c0.6,0,1.2,0.4,1.2,1.3c0,0.8-0.8,1.2-1.2,1.2l-22.1-0.1c-2.6-3.2-6.3-5.1-10.3-5.1
	c-7.4,0-13.4,6.3-13.4,14.1c0,7.8,6,14,13.4,14c4.1,0,7.9-1.9,10.5-5.3c2.4,0,69.2-0.1,69.2-0.1c0,0,0,0,0.1,0
	c0.6,0,1.1,0.6,1.1,1.2c0,0.7-0.6,1.2-1.2,1.2c-0.4,0-0.7-0.3-0.9-0.5c-0.2-0.2-0.8-0.6-1.3-0.6c-0.3,0-0.6,0.1-0.8,0.3h0v0
	c-0.6,0.6-0.5,1.5,0.3,2.3c0.5,0.5,1.6,1.2,2.7,1.2l0,0c1.9,0,3.8-1.4,3.9-4C335.9,205.2,334,203.4,332.5,203.4 M252.3,194.4
	c-1.6,0-2.8,1.3-2.8,3s1.3,3,2.8,3c1.1,0,2-0.6,2.5-1.6l62.7-0.1c0.7,0,1.3-0.6,1.3-1.4c0-0.8-0.6-1.4-1.3-1.4l-62.6,0.1
	C254.3,195,253.3,194.4,252.3,194.4 M159.4,198.8c0.5,1,1.4,1.5,2.5,1.5c1.6,0,2.8-1.3,2.8-3s-1.3-3-2.8-3c-1.1,0-2,0.6-2.5,1.6
	l-62.6-0.1c-0.7,0-1.3,0.6-1.3,1.4c0,0.8,0.6,1.4,1.3,1.4L159.4,198.8z M353.6,205.5c-0.3-0.2-27.8-17.6-62.8-28.1
	c-28.1-8.5-56.2-12.7-83.2-12.7c-19.6,0-44.1,1.3-77.4,10.7c-35.8,10.1-65.5,28.2-66.7,29c-0.9,0.5-1.1,1.7-0.7,2.6
	c0,0,0.4,0.7,1.1,0.9c0.5,0.1,1.3-0.2,1.3-0.2c1.2-0.8,30.5-18.6,65.8-28.6c32.9-9.3,57.1-10.6,76.5-10.6c26.7,0,54.4,4.2,82.2,12.6
	c34.6,10.4,61.6,27.5,61.9,27.6c0.8,0.5,1.9,0.3,2.5-0.6C354.8,207.2,354.5,206,353.6,205.5 M197.6,197l-3.1-0.1
	c-0.2,0-0.3,0.1-0.3,0.3l-0.5,2.9c-0.3,1.2-0.7,2.4-0.8,2.7c-0.4,1.1-0.8,2-1.2,2.5c-0.7,0.9-1.6,1.2-1.9,1.2
	c-0.2,0-0.7-0.3-0.9-0.8c-0.2-0.5-0.3-1.3-0.4-1.8c0,0-0.1-14.4-0.1-21.1c0-1.9,0-3.3,0-3.4v0c0,0,0,0,0,0c0,0,0,0,0,0v0
	c0-0.2,0-0.6,0.1-1c0.1-0.3,0.3-0.6,0.4-0.8c0,0,0.1-0.1,0.1-0.1c0.2-0.2,0.7-0.5,1.3-0.8c0.1,0,0.2-0.2,0.2-0.3l0-2.5
	c0-0.1,0-0.2-0.1-0.2c-0.1-0.1-0.1-0.1-0.2-0.1l-11.5,1c-0.2,0-0.3,0.2-0.3,0.3l0,2.3c0,0.1,0.1,0.3,0.2,0.3l1,0.5
	c0.5,0.3,0.7,0.7,0.7,0.8c0.1,0.2,0.3,0.8,0.5,1.5c0,0,0.2,1.5,0.2,1.6c0,0.4,0.1,22.3,0.1,22.3s0,0.6-0.2,1.2
	c-0.1,0.5-0.4,0.9-0.5,1c-0.1,0.2-0.5,0.6-0.8,0.8l-1,0.5c-0.1,0.1-0.2,0.2-0.2,0.3l0.1,2.2c0,0.2,0.1,0.3,0.3,0.3l17.4,0
	c0.2,0,0.3-0.1,0.3-0.3l1.3-12.5c0-0.1,0-0.2-0.1-0.3C197.7,197.1,197.6,197,197.6,197 M212.3,205.8c-0.1-0.1-0.2-0.1-0.3,0
	l-0.9,0.3c-0.5,0.1-1.1,0.1-1.5,0.1c-0.2,0-1.4,0-2.1-0.7c-0.7-0.7-0.8-2-0.8-2.5c0-0.7,0-5.8,0-14.3l0-0.4c0-0.1,0-0.4,0.1-0.5
	c0.1-0.1,0.4-0.1,0.5-0.1c0,0,0.1,0,0.1,0c0.1,0,0.1,0,0.2,0c0.4,0,3.5,0,3.5,0c0.1,0,0.2-0.1,0.3-0.2c0.1-0.3,0.3-0.9,0.4-1.8
	l0.1-1.5v-0.1c0-0.2-0.2-0.4-0.3-0.4h-4c-0.5,0-0.7,0-0.7-0.1c-0.1-0.1-0.1-0.3-0.1-0.5v-6c0-0.1,0-0.2-0.1-0.3
	c-0.1-0.1-0.2-0.1-0.3-0.1l-6.6,1.8c-0.1,0-0.2,0.2-0.2,0.3v4.2c0,0.2,0,0.4-0.1,0.5c-0.1,0.1-0.3,0.1-0.5,0.1h-3.2
	c-0.2,0-0.3,0.1-0.3,0.3l0,3.3c0,0.1,0,0.2,0.1,0.2c0.1,0.1,0.1,0.1,0.2,0.1h3.1c0.2,0,0.5,0,0.6,0.2c0.1,0.1,0.1,0.3,0.1,0.6l0,0.2
	v15.8c0,0.1,0.1,1.2,0.4,2.2c0.3,0.9,0.9,1.7,1.2,2c0.3,0.3,1,0.9,1.9,1.3c0.8,0.3,1.7,0.4,1.7,0.4c0,0,3.3,0,3.3,0
	c0,0,1.1-0.1,1.1-0.1c0,0,0.3-0.1,0.3-0.1c0,0,1.3-0.4,1.3-0.4c0.6-0.2,0.9-0.4,1.2-0.7c0.4-0.4,0.5-0.6,0.5-0.8l0-2.3
	C212.4,206,212.4,205.9,212.3,205.8 M226.2,202.8c0,0.9-0.9,2.5-2.6,2.5c-1.7,0-2.7-1.4-2.7-2.5c0-0.7,0-12.4,0-12.8
	c0-0.6,0.4-2.7,2.6-2.7c2.4,0,2.8,2.1,2.8,2.5C226.2,190.1,226.2,202.1,226.2,202.8 M236.2,207.2c-0.4,0-1.4-0.1-2-0.6
	c-0.8-0.7-0.9-2.2-0.9-2.3c0-0.9,0-29.7,0-30c0-0.2-0.1-0.3-0.3-0.3c-0.8-0.1-3.7-0.6-6.5-0.7l-3.8,0c-0.1,0-0.2,0-0.2,0.1
	c-0.1,0.1-0.1,0.1-0.1,0.2v2.5c0,0.2,0.1,0.3,0.3,0.3c0.4,0,0.7,0.1,1,0.2c0.5,0.2,1,0.7,1.2,0.9c0.1,0.1,0.7,0.7,0.9,1.3
	c0.1,0.3,0.2,0.8,0.2,1.1c0,0,0,0,0,0.1c0,0,0,0.1,0,0.1c0,0,0,0,0,0v3.8c0,0.2-0.1,0.4-0.1,0.5c-0.1,0.1-0.2,0.2-0.3,0.2
	c-0.1,0-0.4-0.2-0.4-0.2c-0.3-0.2-0.8-0.5-1.4-0.7c-0.9-0.3-2.1-0.4-2.5-0.4c-0.5,0-3.6,0.3-5.2,1.8c-2.1,1.8-2.1,5.2-2.1,5.2
	c0,0,0,15.2,0,15.2c0,0,0.1,1.9,1.4,3.2c1.2,1.2,2.8,1.9,3.8,1.9c0,0,2.8,0.3,4.5-0.6c0.7-0.4,1.7-1.1,1.9-1.3h0.3
	c0.1,0.1,0.4,0.8,0.8,1.2c0.4,0.4,0.9,0.4,1.1,0.4h8.4c0.2,0,0.3-0.1,0.3-0.3v-2.4C236.5,207.3,236.3,207.2,236.2,207.2 M161,130.9
	c-0.3,0-3.1,0-3.4,0c-0.3,0-0.5-0.2-0.5-0.6c0.1-0.6,1.9-16.5,1.9-16.5c0-0.1,0.1-0.1,0.1-0.1c0.1,0,0.1,0,0.1,0.1
	c0,0.1,2.1,16.3,2.1,16.5C161.5,130.5,161.3,130.9,161,130.9 M158.5,105.9l-4,26.9h9.5l-4.3-27L158.5,105.9z M165.3,134
	c-0.2,0.3-0.6,0.5-1,0.5h-10.2c-0.4,0-0.7-0.2-1-0.5c-0.2-0.3-0.3-0.7-0.3-1l4-27.6c0.1-0.6,0.6-1.1,1.2-1.1l1.8,0
	c0.6,0,1.1,0.5,1.2,1.1l4.4,27.6C165.7,133.3,165.6,133.7,165.3,134 M179.8,154c-0.2-0.2-0.6-0.7-0.9-1.4c-0.3-0.8-0.5-1.6-0.5-1.6
	v0l-7.2-46.1c0,0-0.3-1.5-0.3-2.1c-0.1-0.9-0.1-1.3-0.1-1.6c0-0.5,0-1.1,0.4-2.2c0.3-0.8,1-1.4,1.3-1.6c0.4-0.3,1.2-0.9,2.1-1.1
	c0.6-0.2,1.2-0.2,1.6-0.2h0.1v-2.2h-27.3l0,2.1c0.4,0.1,1.2,0.3,1.9,0.8c0.8,0.5,1.4,1.1,1.7,1.6c0.3,0.6,0.8,1.5,0.9,2.5
	c0.1,1.2-0.1,2.4-0.1,2.4l-7.7,52.1c0,0.1-0.5,2.9-1,3.9c0,0-0.7,1.3-1.3,2c-0.6,0.7-1.2,1.2-1.4,1.5v1.8l11.9-2.5v-2.1
	c-0.3,0-0.8-0.1-1.2-0.2c-0.8-0.2-1.5-0.7-1.8-1c-0.3-0.3-0.7-1-0.9-1.7c-0.2-0.8,0-1.5,0-1.5l2.5-16.5c0-0.1,0.1-0.4,0.3-0.6
	c0.2-0.1,0.4-0.2,0.6-0.2h12.2c0,0,0.1,0,0.1,0c0.1,0,0.4,0,0.6,0.2c0.3,0.2,0.4,0.6,0.4,0.6l2.1,12.6c0,0,0.2,1.1,0.1,2.1
	c-0.1,0.7-0.3,1.4-0.5,1.8c-0.2,0.4-0.8,1.1-1.4,1.6c-0.5,0.4-1.1,0.6-1.4,0.8v2.1l16.8-1.9v-2.7c-0.2-0.1-0.6-0.2-0.9-0.4
	C180.6,154.7,180,154.3,179.8,154 M212.5,96.7c0,0.1,0,0.6-0.3,0.8c-0.4,0.2-0.8-0.1-0.9-0.1h0l0,0l0,0c-0.5-0.4-2.9-2.3-4.3-3
	c-1.4-0.7-2.8-1.2-3.9-1.5c-1.9-0.4-3.8-0.5-3.9-0.5h0c-0.7,0-3,0.2-5.1,1c-1.3,0.6-2.3,1.4-3.4,2.4c-2.2,2.1-2.6,5.3-2.6,5.5
	l0,13.5c0,0,0,1.4,0.3,2.9c0.2,1,0.7,2.1,1,2.8c0.4,0.8,1.2,1.8,1.9,2.5c0.8,0.8,1.6,1.4,1.7,1.4l9.7,6.4c0,0,1,0.7,1.9,1.4
	c0.5,0.5,1,1,1.2,1.3l0,0.1c0.2,0.3,0.6,0.9,0.8,1.7c0.3,1.1,0.3,2.4,0.3,2.5v6.1c0,0.1,0,1.9-0.4,3.5c-0.2,0.7-0.6,1.5-1.1,2.1
	c-0.6,0.8-1.6,1.8-2.8,2.3c-1.3,0.6-3.5,0.6-3.5,0.6c-0.8,0-1.4-0.1-2.1-0.3c-1.1-0.4-2.4-1.2-3.3-2.2c-0.7-0.7-1.3-1.9-1.6-3
	c-0.4-1.3-0.4-2.4-0.4-2.4l-0.1-7.3H188l0,20.4h3.8l0-3c0-0.3,0.1-0.8,0.5-1c0.1,0,0.2,0,0.2,0c0.4,0,0.8,0.3,0.9,0.4
	c0.5,0.3,3.1,2,4.7,2.6c1.7,0.7,4,1.1,6.3,1.1c2,0,3.8-0.2,5.8-1.2c1.4-0.7,2.9-1.8,4.2-3.4c2.1-2.5,2.3-5.9,2.4-6.1v-11.5
	c0,0,0-1.3-0.3-2.8c-0.2-1.1-0.7-2.3-1.1-3c-0.3-0.7-1-1.7-1.7-2.5c-1-1.1-2.2-1.9-2.2-1.9l-9.6-6.2c-0.1-0.1-2.4-1.6-2.9-2.4
	c-0.2-0.3-0.8-1.2-1.1-2.1c-0.4-1.1-0.4-2.2-0.4-2.2v-7.9c0-0.1,0-1.3,0.6-2.6c0.3-0.7,0.8-1.4,1.5-2.1c1.2-1.2,3.1-1.9,4.7-1.9
	c1.6,0,4.9,1,6.5,3.5l0,0c0.6,0.9,1.1,1.7,1.4,2.7c0.6,2.1,0.6,4.2,0.5,4.3v2.9h4V93.9h-4.2L212.5,96.7L212.5,96.7z M52.6,186
	c0,0.1-0.7,5.5-1,6.7c-0.2,1.3-0.8,2.5-0.9,3l0,0.1c-0.5,1.4-1.5,2.6-2.8,3.7c-2.8,2.4-5.9,2.5-5.9,2.5c0,0-7.7,0-7.7,0
	c-0.1,0-0.9-0.1-0.9-1.1l0-99.7v0v0c0-0.1,0.2-2.1,1.8-3.7c1-1,2.5-1.4,3.2-1.6v-2.1H16.7l0,2c0.8,0.2,2.4,0.7,3.5,2
	c1.4,1.7,1.4,3.7,1.4,3.7c0,3.9,0.2,95.9,0.2,96c0,0.1,0.1,2.6-0.9,4.1c-1.4,2.1-3.2,2.6-3.8,2.8l0,2.6l38.4-0.1l2.6-31.3l-4.3,0
	L52.6,186z M223.6,96.1c0.3,0.1,0.9,0.2,1.5,0.5c0.8,0.4,1.6,1,1.9,1.4c0.2,0.2,0.8,0.9,1.1,1.8c0.3,1,0.4,2,0.4,2.1l0.1,47.3
	c0,0,0,1-0.3,2c-0.2,0.8-0.7,1.6-1,2c-0.3,0.3-1,1.1-1.9,1.5c-0.6,0.3-1.3,0.5-1.6,0.6v2.4c1.2,0.1,6.8,0.7,9.9,0.9
	c1.3,0.1,2.2,0.2,7.1,0.8l2.3,0.3v-2.2c-0.3-0.1-0.8-0.2-1.2-0.4c-0.8-0.4-1.7-1-2.1-1.4c-0.3-0.3-0.9-1.2-1.2-1.9
	c-0.4-1-0.4-1.8-0.4-1.9l-0.1-22.5c0-0.1,0-0.6,0.2-0.9c0.2-0.2,0.4-0.3,0.9-0.3c0.1,0,0.3,0,0.3,0l5,0c1.2,0,2.3,0.6,3.3,1.6
	c0.9,0.9,1.3,1.9,1.3,2.1c0.3,0.6,0.4,1.2,0.5,1.6h3.6v-14.5h-3.6c-0.1,0.3-0.2,0.9-0.4,1.4c-0.3,0.8-0.9,1.6-1.2,1.9
	c-0.4,0.4-0.9,0.9-1.6,1.2c-0.8,0.4-1.6,0.4-1.6,0.4h0H239c-0.2,0-0.5,0-0.7-0.2c-0.2-0.2-0.2-0.6-0.2-0.7l0-23.1
	c0-0.1-0.1-0.5,0.2-0.8c0.2-0.2,0.5-0.2,0.7-0.2c0,0,0,0,0,0l6.9,0c0,0,1.3,0,2.6,0.5c0.9,0.3,1.8,0.9,2.3,1.4
	c0.5,0.4,1.3,1.4,1.7,2.4c0.5,1.2,0.5,2.3,0.5,2.4v3.9h4.4V93.8h-33.8L223.6,96.1z M136.3,139.5h-5.1l0.1,16.1c0,0,0,1.7-0.5,3.3
	c-0.4,1.3-1.2,2.6-1.7,3.3c-0.4,0.4-1.6,1.6-3.1,2.2c-1.7,0.7-3.6,0.7-3.6,0.7c-0.4,0-1.3,0-2.3-0.4c-1-0.4-2.2-1.2-2.8-1.8
	c-0.6-0.7-1.5-1.9-2-3.1c-0.5-1.4-0.6-2.7-0.6-2.7c0,0,0.1-48.5,0.1-50.9c0-3.1,0.8-5.2,2.9-7c1-0.9,3-1.9,5.2-1.9
	c1.5,0,3,0.5,4.3,1.5c3.8,2.9,4.1,8.9,4.1,9v8h5l0-21.9h-5.2v1.4c0,0.1,0.1,0.6-0.4,0.8c-0.6,0.3-1.2-0.1-1.3-0.2
	c-0.5-0.3-1.8-1-3.4-1.7c-2.1-0.8-4.4-1.4-6.4-1.6c-0.4,0-0.7-0.1-1.1-0.1c-3.7,0-7,1.7-7,1.7c-2.1,0.9-4.7,3.3-5.7,5.3
	c-1.1,2.1-1.2,4-1.2,4V159c0,0,0,2.7,0.9,5.2c0.8,1.9,2.5,3.6,3.4,4.5c1.3,1.1,4,2.1,6,2.5c1.3,0.3,2.6,0.4,3.9,0.4
	c0.1,0,1.1,0,1.1,0c1.2,0,3.4-0.1,5.5-0.8c2.2-0.7,4.4-2.2,6.6-4.3c1.3-1.2,2.9-3.5,3.7-5.8c0.8-2.6,0.8-5.3,0.8-5.4L136.3,139.5
	L136.3,139.5z M318.3,165.5L318.3,165.5c-0.3,0.7-1.6,4.2-4.5,5.4c-0.2,0.1-1.1,0.5-2.6,0.5c-1.7,0-3.6-0.5-5.7-1.4l-0.5-0.2v-1.1
	c0-0.7,0-66.5,0-67.2c0-0.8,0.2-1.3,0.5-2c0.4-0.8,1.1-1.6,1.4-1.9c1.1-1,2.3-1.4,2.9-1.5v-2.2h-20.1l-0.1,2.2
	c0.8,0.3,2.7,1.1,3.5,2c0.4,0.4,0.9,1.2,1.1,2.1c0.3,1.1,0.3,2.3,0.3,2.3v59.4c0,0,0,1.2-0.3,2.2c-0.2,0.8-0.7,1.4-1,1.8
	c-0.4,0.4-1.1,0.9-1.8,1.1c-0.6,0.2-1.2,0.3-1.6,0.4v2.5c1.3,0.4,8.2,2.6,13.2,4.4c4.9,1.7,14.6,5.5,16.5,6.3l4.6-28.2l-2.3,0
	C320.2,158.5,318.3,165.4,318.3,165.5 M281.6,164.6c-0.9-0.6-1.9-1.4-2.2-1.9c-0.2-0.3-0.8-1.2-1.1-2.2c-0.3-1.1-0.3-2.2-0.3-2.2
	l0-56.2v0c0,0,0.1-1.1,0.4-2.1c0.2-0.6,0.5-1.3,0.7-1.6c0.3-0.4,1-1.1,1.6-1.5c0.3-0.3,0.7-0.4,0.8-0.5v-2.4l-17.5,0.1v2.2
	c0.2,0.1,0.7,0.4,1.1,0.7c0.5,0.4,1,0.8,1.2,1.1l0,0c0.2,0.3,0.7,0.9,1,1.6c0.3,0.9,0.4,1.8,0.4,1.9v0l0.1,52.7c0,0,0,0.9-0.2,1.9
	c-0.2,0.8-0.6,1.7-0.9,2.1c-0.1,0.1-0.9,1.2-1.9,1.7c-0.7,0.4-1.3,0.5-1.7,0.6v2.4c1.9,0.4,17.5,4.2,19.9,4.8l0-2.5
	C282.6,165.1,282.1,164.9,281.6,164.6 M381.9,204.2c-0.8-0.3-1.6-0.8-1.9-1.1c-0.3-0.3-1-1.2-1.4-1.9c-0.5-1.1-0.5-2-0.5-2l0-97.2
	c0,0,0-1,0.4-2c0.3-0.8,0.9-1.6,1.3-2c0.4-0.5,1.2-1,1.8-1.2c0.7-0.3,1.3-0.5,1.7-0.6v-2.3h-20.3l-9,45v0l0,0c0,0-0.1,0.4-0.3,0.6
	c-0.2,0.2-0.5,0.2-0.6,0.2h0l-2.5,0h0h0c0,0-0.4,0-0.7-0.4c-0.2-0.3-0.4-0.8-0.4-0.9l-9-44.6h-16.6l0,2.3c0.4,0.1,1,0.3,1.7,0.6
	c0.8,0.4,1.6,1,2,1.5c0.4,0.5,0.9,1.3,1.1,2.2c0.2,0.9,0.2,1.7,0.2,1.8l0,71.6c0,0,0,0.9-0.3,1.7c-0.3,0.8-0.8,1.5-1.2,1.9
	c-0.3,0.3-1,0.8-1.8,1.1c-0.6,0.3-1.4,0.4-1.7,0.5v2.9c0.7,0.3,3.3,1.5,6.5,3c3.1,1.5,6.5,3.2,7.7,3.7v-2.3
	c-0.3-0.1-0.9-0.5-1.6-0.9c-0.7-0.5-1.4-1.1-1.8-1.5c-0.4-0.5-0.9-1.4-1.2-2.3c-0.4-1.1-0.4-2.2-0.4-2.2l0.1-58.8c0,0,0-0.5,0.2-0.7
	c0.2-0.2,0.4-0.2,0.6-0.2c0,0,0.1,0,0.1,0c0.2,0,3.1,0,3.1,0c0.2,0,0.3,0,0.5,0.1c0.2,0.2,0.3,0.5,0.3,0.6l12,57.6l11.5-57.5
	c0-0.1,0.1-0.5,0.3-0.7c0.1-0.1,0.3-0.2,0.6-0.2c0,0,0.1,0,0.1,0l3,0c0,0,0.1,0,0.1,0c0.2,0,0.4,0,0.6,0.2c0.3,0.3,0.3,0.8,0.3,0.8
	l-0.1,76.6v0c0,0.9-0.1,3-0.8,4c-0.7,1.1-2,2.5-4,2.9v2.4h21.7l0-2.5C383,204.5,382.4,204.4,381.9,204.2"/>
</svg>
