<?xml version="1.0" encoding="utf-8"?>
<!-- Generator: Adobe Illustrator 23.0.3, SVG Export Plug-In . SVG Version: 6.00 Build 0)  -->
<svg version="1.1"
	 id="logosvg.com" xmlns:cc="http://creativecommons.org/ns#" xmlns:dc="http://purl.org/dc/elements/1.1/" xmlns:inkscape="http://www.inkscape.org/namespaces/inkscape" xmlns:rdf="http://www.w3.org/1999/02/22-rdf-syntax-ns#" xmlns:serif="http://www.serif.com/" xmlns:sodipodi="http://sodipodi.sourceforge.net/DTD/sodipodi-0.dtd" xmlns:svg="http://www.w3.org/2000/svg"
	 xmlns="http://www.w3.org/2000/svg" xmlns:xlink="http://www.w3.org/1999/xlink" x="0px" y="0px" viewBox="0 0 400 300"
	 style="enable-background:new 0 0 400 300;" xml:space="preserve">
<path id="black" d="M348.3,121.7h14.5l-3.1,14.5h-14.5l-4.8,22.5c-1.1,5.1,0,5.8,5.9,5.8c2.7,0,4.9-0.1,7.8-0.2l-2.9,13.6
	c-4.6,0.6-10.4,1-16.9,1c-14.3,0-19.4-3.5-16.8-15.6l5.8-27.2h-11.5l3-14.4h11.5l3.8-17.8H352L348.3,121.7z M273.2,177.7h21.9
	l11.9-56h-21.9L273.2,177.7z M286.5,115.3h21.9l2.8-13.2h-21.9L286.5,115.3z M227.1,121.7l-11.9,56h21.3l11.9-56H227.1z
	 M277.8,119.3c-1.4-0.1-2.8-0.2-4.1-0.2c-9.8,0-25.4,9.6-29.5,26.8l-1.1,3.9h0.4c3.1-7.4,10.9-11.4,21.4-11.4c2.8,0,6.1,0.4,8.6,1
	L277.8,119.3z M196.1,121.7l-11.9,56h21.9l11.9-56H196.1z M222.2,102h-21.9l-2.8,13.2h21.9L222.2,102z M182.9,150.6
	c-3.4,16.2-18.2,29.3-38.8,29.3c-9.7,0-16.5-3.2-19.3-7.3h-0.2l-5.4,25.3H97.3l16.2-76.3h21.3l-1.6,7.4h0.2
	c5.9-5.7,14.3-8.9,23.2-8.9C176.4,120.2,187,131.2,182.9,150.6z M148.1,135.5c-10.3,0-16.8,5.6-18.6,14.3
	c-1.9,8.7,2.3,14.2,12.6,14.2c10,0,16.6-5,18.5-14.2C162.5,140.5,158.1,135.5,148.1,135.5z M80.5,143.3L62,141.2
	c-5.4-0.6-6.6-2.2-6.2-3.9c0.8-3.8,4.8-5.3,11.2-5.3c2.8,0,5.6,0.3,7.6,1.3c2,0.8,3.2,2.4,2.9,4.7h24.6c2.2-15.9-16.1-18.6-31-18.6
	c-21,0-35,4.8-38.2,20c-2,9.5,3.5,14.1,16,15.6l19.1,2.4c5.3,0.6,7.3,1.5,6.6,4.4c-0.9,4-6.2,5-11.1,5c-4.8,0-7.6-0.6-9.3-1.7
	c-1.7-1.1-2.2-2.7-2.1-4.8H26.5c-3.1,17,17.3,19.7,32.8,19.7c23.3,0,37.2-6.2,40-19.4C101.7,149.6,95.2,144.9,80.5,143.3z
	 M370.5,126.6l1,1.8h-1.2l-0.7-1.5h-0.8v1.5h-1.2v-4.6l0,0h1.9c0.5,0,0.9,0.1,1.3,0.4c0.4,0.2,0.5,0.6,0.5,1.2
	c0,0.3-0.1,0.5-0.2,0.7C371,126.3,370.8,126.5,370.5,126.6z M370.1,125.4c0-0.2-0.1-0.4-0.2-0.5s-0.4-0.2-0.6-0.2h-0.5v1.4h0.5
	c0.3,0,0.5-0.1,0.6-0.2C370,125.8,370.1,125.6,370.1,125.4z M373.8,126.2c0,0.7-0.1,1.3-0.4,1.8c-0.2,0.5-0.5,1-0.9,1.5
	c-0.4,0.4-0.9,0.7-1.4,0.9s-1.1,0.3-1.7,0.3s-1.2-0.1-1.7-0.3s-1-0.5-1.4-0.9s-0.7-0.9-0.9-1.5c-0.2-0.5-0.4-1.2-0.4-1.8
	c0-0.7,0.1-1.3,0.4-1.9c0.2-0.6,0.5-1.1,0.9-1.5s0.9-0.7,1.4-0.9c0.5-0.2,1.1-0.3,1.7-0.3s1.2,0.1,1.7,0.3c0.5,0.2,1,0.5,1.4,0.9
	s0.7,0.9,0.9,1.5C373.7,124.9,373.8,125.5,373.8,126.2z M372.7,126.2c0-0.5-0.1-1-0.3-1.5c-0.2-0.5-0.4-0.8-0.7-1.2
	c-0.3-0.3-0.6-0.6-1.1-0.7c-0.4-0.2-0.9-0.3-1.3-0.3c-0.5,0-0.9,0.1-1.4,0.3c-0.4,0.2-0.8,0.4-1.1,0.7c-0.3,0.3-0.5,0.7-0.7,1.2
	s-0.3,0.9-0.3,1.5c0,0.5,0.1,1,0.3,1.5c0.2,0.4,0.4,0.8,0.7,1.1c0.3,0.3,0.6,0.5,1.1,0.7c0.4,0.2,0.9,0.3,1.4,0.3s0.9-0.1,1.3-0.3
	s0.8-0.4,1.1-0.7c0.3-0.3,0.5-0.7,0.7-1.1C372.6,127.2,372.7,126.7,372.7,126.2z"/>
</svg>
